<svg width="269" height="309" viewBox="0 0 269 309" fill="none" xmlns="http://www.w3.org/2000/svg">
<path d="M100.684 86.8879C129.165 88.6183 145.071 107.097 157.841 129.773C170.978 153.104 174.234 177.916 168.502 205.241C160.631 192.016 157.009 176.854 142.765 166.335C143.388 170.154 143.151 172.207 144.022 173.501C153.082 186.949 158.963 201.8 163.55 217.261C164.131 219.218 164.778 221.215 165.773 222.976C168.481 227.767 172.214 228.667 176.813 225.767C177.949 225.05 178.98 224.118 179.93 223.155C188.946 214.02 198.057 205.02 210.523 200.244C198.914 195.153 189.958 200.544 181.364 207.845C181.364 195.771 182.291 184.553 181.19 173.542C177.952 141.181 164.672 113.756 138.326 94.1747C131.466 89.0762 122.723 86.208 114.467 83.4805C108.554 81.5272 106.743 82.7815 100.684 86.8879Z" fill="#017544"/>
</svg>
