<svg width="353" height="83" viewBox="0 0 353 83" fill="none" xmlns="http://www.w3.org/2000/svg">
<g clip-path="url(#clip0_7078_11420)">
<path d="M10.6385 64.1955C7.6322 64.1955 5.97876 62.6138 5.97876 59.5102V23.5497C5.97876 20.4461 7.6322 18.8644 10.6385 18.8644H62.5265C65.5027 18.8644 67.1863 20.4461 67.1863 23.5497V59.5102C67.1863 62.6138 65.5027 64.1955 62.5265 64.1955H10.6385Z" fill="#017544" fill-opacity="0.1"/>
<path d="M24.9783 61.8975H48.2168C49.0283 61.8975 49.5996 61.3603 49.5996 60.5248C49.5996 59.6893 49.0283 59.1221 48.2168 59.1221H24.9783C24.1666 59.1221 23.5654 59.6893 23.5654 60.5248C23.5654 61.3603 24.1666 61.8975 24.9783 61.8975ZM10.5783 69H62.5865C68.8997 69 72.0261 65.8964 72.0261 59.7489V23.311C72.0261 17.1633 68.8997 14.0597 62.5865 14.0597H10.5783C4.29524 14.0597 1.13867 17.1335 1.13867 23.311V59.7489C1.13867 65.9264 4.29524 69 10.5783 69ZM10.6385 64.1955C7.63221 64.1955 5.97876 62.6138 5.97876 59.5102V23.5497C5.97876 20.4461 7.63221 18.8644 10.6385 18.8644H62.5265C65.5027 18.8644 67.1862 20.4461 67.1862 23.5497V59.5102C67.1862 62.6138 65.5027 64.1955 62.5265 64.1955H10.6385Z" fill="#017544"/>
</g>
<g opacity="0.65" clip-path="url(#clip1_7078_11420)">
<path d="M118.549 50.2924L112.947 49.9067L89.5838 49.7934C88.6938 49.7891 88.0171 50.441 88.0215 51.3558C88.0383 52.2582 88.709 52.9289 89.599 52.9333L112.962 53.0466L118.56 52.6906C119.339 52.6325 119.756 52.0659 119.754 51.4973C119.751 50.9039 119.328 50.3333 118.549 50.2924ZM110.001 59.3119C109.706 59.607 109.572 59.9401 109.562 60.3974C109.566 61.3122 110.199 61.9457 111.127 61.9625C111.51 61.952 111.954 61.7565 112.262 61.4489L121.243 52.6912C121.932 52.027 121.939 51.0258 121.231 50.3424L112.177 41.485C111.866 41.1745 111.421 40.9746 111.025 40.9726C110.098 40.9805 109.47 41.6079 109.475 42.5226C109.477 42.9676 109.627 43.3144 109.938 43.6251L113.701 47.2651L118.666 51.492L113.754 55.6834L110.001 59.3119Z" fill="#017544"/>
<path d="M91.131 29.8128C90.3401 29.8583 89.9225 30.425 89.9254 31.0183C89.9281 31.587 90.3513 32.1576 91.1303 32.2232L96.7319 32.6336L120.108 32.7347C120.998 32.7389 121.662 32.0994 121.658 31.1847C121.653 30.2698 120.97 29.6114 120.08 29.607L96.7167 29.4938L91.131 29.8128ZM99.7415 38.9153L95.9659 35.2629L91.0256 31.0361L95.9375 26.8447L99.69 23.2163C99.973 22.9334 100.12 22.5879 100.117 22.1429C100.113 21.2282 99.4795 20.5947 98.5524 20.5778C98.1568 20.5759 97.7127 20.7715 97.4175 21.0668L88.4364 29.8492C87.7474 30.5133 87.7647 31.5394 88.4478 32.1978L97.5144 41.043C97.825 41.3535 98.2709 41.5536 98.6542 41.5678C99.5936 41.5476 100.209 40.9326 100.204 40.0177C100.214 39.5605 100.052 39.2259 99.7415 38.9153Z" fill="#017544"/>
</g>
<g clip-path="url(#clip2_7078_11420)">
<path d="M148.525 76.6154C145.181 76.6154 143.333 74.8526 143.333 71.7192V11.2024C143.333 8.06888 145.181 6.30627 148.525 6.30627H176.059C179.363 6.30627 181.212 8.06888 181.212 11.2024V71.7192C181.212 74.8526 179.363 76.6154 176.059 76.6154H148.525Z" fill="#017544" fill-opacity="0.1"/>
<path d="M147.699 82.9214H176.846C183.257 82.9214 187.544 78.8479 187.544 72.7376V10.184C187.544 4.07359 183.257 0 176.846 0H147.699C141.287 0 137 4.07359 137 10.184V72.7376C137 78.8479 141.287 82.9214 147.699 82.9214ZM148.525 76.6154C145.182 76.6154 143.333 74.8526 143.333 71.7192V11.2024C143.333 8.06889 145.182 6.30628 148.525 6.30628H176.059C179.363 6.30628 181.212 8.06889 181.212 11.2024V71.7192C181.212 74.8526 179.363 76.6154 176.059 76.6154H148.525ZM153.953 73.756H170.67C171.732 73.756 172.479 73.0116 172.479 71.915C172.479 70.818 171.732 70.1133 170.67 70.1133H153.953C152.891 70.1133 152.104 70.818 152.104 71.915C152.104 73.0116 152.891 73.756 153.953 73.756ZM157.532 14.6102H167.051C168.585 14.6102 169.805 13.3959 169.805 11.8291C169.805 10.3015 168.585 9.08727 167.051 9.08727H157.532C155.959 9.08727 154.74 10.3015 154.74 11.8291C154.74 13.3959 155.959 14.6102 157.532 14.6102Z" fill="#017544"/>
</g>
<g opacity="0.65" clip-path="url(#clip3_7078_11420)">
<path d="M206.992 50.7521C206.213 50.793 205.79 51.3636 205.787 51.957C205.784 52.5256 206.202 53.0922 206.98 53.1503L212.578 53.5064L235.941 53.3931C236.831 53.3886 237.502 52.7179 237.519 51.8154C237.523 50.9006 236.847 50.2489 235.957 50.2531L212.593 50.3664L206.992 50.7521ZM215.539 59.7715L211.787 56.1431L206.875 51.9517L211.827 47.7372L215.603 44.0847C215.913 43.7742 216.063 43.4273 216.066 42.9823C216.07 42.0675 215.443 41.4402 214.516 41.4323C214.12 41.4342 213.674 41.6342 213.363 41.9447L204.309 50.8022C203.601 51.4855 203.609 52.4867 204.298 53.1509L213.267 61.9209C213.574 62.2286 214.018 62.4242 214.414 62.4222C215.341 62.4054 215.974 61.7719 215.979 60.8571C215.969 60.3998 215.834 60.0666 215.539 59.7715Z" fill="#017544"/>
<path d="M234.41 30.2724L228.824 29.9535L205.46 30.0667C204.57 30.071 203.887 30.7295 203.883 31.6442C203.878 32.559 204.543 33.1986 205.433 33.1943L228.809 33.0933L234.41 32.6828C235.189 32.6173 235.612 32.0467 235.615 31.4779C235.618 30.8847 235.2 30.318 234.41 30.2724ZM225.799 39.3749C225.488 39.6855 225.326 40.0201 225.336 40.4774C225.332 41.3922 225.947 42.0072 226.886 42.0274C227.27 42.0132 227.716 41.8132 228.026 41.5027L237.093 32.6575C237.776 31.999 237.793 30.973 237.104 30.3088L228.111 21.5388C227.815 21.2436 227.371 21.048 226.988 21.0375C226.061 21.0543 225.427 21.6878 225.423 22.6025C225.421 23.0476 225.568 23.393 225.85 23.6759L229.603 27.3043L234.515 31.4957L229.562 35.735L225.799 39.3749Z" fill="#017544"/>
</g>
<g clip-path="url(#clip4_7078_11420)">
<path d="M269.57 61.3019V22.7447C269.57 20.5838 270.655 19.5034 272.824 19.5034H330.645C332.814 19.5034 333.898 20.5838 333.898 22.7447V61.3019H269.57Z" fill="#017544" fill-opacity="0.1"/>
<path d="M291.499 19.5034H292.346C292.854 19.5034 293.126 19.7397 293.126 20.3137V20.685C293.126 22.1031 294.075 23.0485 295.498 23.0485H308.038C309.428 23.0485 310.309 22.1031 310.309 20.685V20.3137C310.309 19.7397 310.58 19.5034 311.156 19.5034H312.004V16.701H291.499V19.5034ZM252.861 65.1509C252.861 67.2782 254.59 69 256.691 69H346.777C348.879 69 350.607 67.2782 350.607 65.1509C350.607 63.024 348.879 61.3019 346.777 61.3019H339.355V21.2253C339.355 16.4984 336.813 14.0675 332.102 14.0675H271.367C266.893 14.0675 264.114 16.4984 264.114 21.2253V61.3019H256.691C254.59 61.3019 252.861 63.024 252.861 65.1509ZM269.57 61.3019V22.7446C269.57 20.5838 270.655 19.5034 272.824 19.5034H330.645C332.814 19.5034 333.898 20.5838 333.898 22.7446V61.3019H269.57Z" fill="#017544"/>
</g>
<defs>
<clipPath id="clip0_7078_11420">
<rect width="72" height="55" fill="white" transform="translate(1.13867 14)"/>
</clipPath>
<clipPath id="clip1_7078_11420">
<rect width="40" height="39" fill="white" transform="translate(104.716 13.5693) rotate(45)"/>
</clipPath>
<clipPath id="clip2_7078_11420">
<rect width="52" height="83" fill="white" transform="translate(137)"/>
</clipPath>
<clipPath id="clip3_7078_11420">
<rect width="40" height="39" fill="white" transform="translate(193 41.8536) rotate(-45)"/>
</clipPath>
<clipPath id="clip4_7078_11420">
<rect width="99" height="55" fill="white" transform="translate(252.861 14)"/>
</clipPath>
</defs>
</svg>
