<svg width="1024" height="1024" viewBox="0 0 1024 1024" fill="none" xmlns="http://www.w3.org/2000/svg">
<rect width="1024" height="1024" rx="192" fill="#1F2937"/>
<circle cx="512" cy="512" r="400" fill="url(#paint0_linear_8875_295)"/>
<path d="M512.333 229C465.133 229 423.533 260.2 410.2 305.533C396.067 299.133 381.133 295.667 365.667 295.667C337.377 295.667 310.246 306.905 290.242 326.909C270.238 346.912 259 374.044 259 402.333C259.063 425.956 266.947 448.892 281.419 467.562C295.892 486.232 316.139 499.584 339 505.533V695.667H685.667V505.533C732.6 493.267 765.667 450.867 765.667 402.333C765.667 374.044 754.429 346.912 734.425 326.909C714.421 306.905 687.29 295.667 659 295.667C643.533 295.667 628.6 299.133 614.467 305.533C601.133 260.2 559.533 229 512.333 229ZM499 469H525.667V655.667H499V469ZM419 522.333H445.667V655.667H419V522.333ZM579 522.333H605.667V655.667H579V522.333ZM339 722.333V749C339 756.072 341.81 762.855 346.81 767.856C351.811 772.857 358.594 775.667 365.667 775.667H659C666.072 775.667 672.855 772.857 677.856 767.856C682.857 762.855 685.667 756.072 685.667 749V722.333H339Z" fill="white"/>
<defs>
<linearGradient id="paint0_linear_8875_295" x1="811.5" y1="212.5" x2="224" y2="800" gradientUnits="userSpaceOnUse">
<stop stop-color="#00B669"/>
<stop offset="1" stop-color="#089A61"/>
</linearGradient>
</defs>
</svg>
