<svg width="4181" height="637" viewBox="0 0 4181 637" fill="none" xmlns="http://www.w3.org/2000/svg">
<circle cx="318.5" cy="318.5" r="318.5" fill="url(#paint0_linear_8917_255)"/>
<path d="M318.765 93.1613C281.182 93.1613 248.058 118.004 237.442 154.101C226.188 149.005 214.297 146.245 201.982 146.245C179.456 146.245 157.853 155.193 141.925 171.121C125.997 187.049 117.049 208.652 117.049 231.178C117.099 249.987 123.376 268.25 134.9 283.116C146.424 297.982 162.546 308.613 180.749 313.351V464.745H456.782V313.351C494.153 303.584 520.482 269.823 520.482 231.178C520.482 208.652 511.534 187.049 495.606 171.121C479.678 155.193 458.075 146.245 435.549 146.245C423.233 146.245 411.343 149.005 400.089 154.101C389.472 118.004 356.348 93.1613 318.765 93.1613ZM308.149 284.261H329.382V432.895H308.149V284.261ZM244.449 326.728H265.682V432.895H244.449V326.728ZM371.849 326.728H393.082V432.895H371.849V326.728ZM180.749 485.978V507.211C180.749 512.843 182.986 518.243 186.968 522.226C190.95 526.208 196.351 528.445 201.982 528.445H435.549C441.18 528.445 446.581 526.208 450.563 522.226C454.545 518.243 456.782 512.843 456.782 507.211V485.978H180.749Z" fill="white"/>
<path d="M936.438 386.328C953.781 386.328 967.688 380.469 978.156 368.75C988.781 356.875 994.094 341.172 994.094 321.641C994.094 301.953 988.781 286.172 978.156 274.297C967.688 262.266 953.781 256.25 936.438 256.25C919.094 256.25 905.109 262.266 894.484 274.297C883.859 286.328 878.547 302.109 878.547 321.641C878.547 341.172 883.859 356.875 894.484 368.75C905.109 380.469 919.094 386.328 936.438 386.328ZM1119.95 321.641C1119.95 346.797 1115.5 370.234 1106.59 391.953C1097.69 413.516 1084.64 432.812 1067.45 449.844C1050.27 466.562 1030.42 479.375 1007.92 488.281C985.578 497.188 961.75 501.641 936.438 501.641C910.812 501.641 886.828 497.188 864.484 488.281C842.141 479.375 822.297 466.406 804.953 449.375C787.922 432.812 775.031 413.75 766.281 392.188C757.531 370.625 753.156 347.109 753.156 321.641C753.156 296.172 757.531 272.578 766.281 250.859C775.031 229.141 787.922 210 804.953 193.438C822.141 176.562 841.906 163.75 864.25 155C886.594 146.094 910.656 141.641 936.438 141.641C962.219 141.641 986.281 146.094 1008.62 155C1030.97 163.75 1050.81 176.562 1068.16 193.438C1085.03 210.156 1097.84 229.375 1106.59 251.094C1115.5 272.812 1119.95 296.328 1119.95 321.641ZM1165.42 492.5V250.156H1279.56V283.672C1289.72 269.766 1300.97 259.453 1313.31 252.734C1325.66 245.859 1339.56 242.422 1355.03 242.422C1380.81 242.422 1401.2 250.234 1416.2 265.859C1431.36 281.484 1438.94 302.812 1438.94 329.844V492.5H1321.28V370.156C1321.28 358.125 1320.03 349.844 1317.53 345.312C1315.03 340.781 1310.66 338.516 1304.41 338.516C1297.53 338.516 1292.3 341.172 1288.7 346.484C1285.11 351.797 1283.31 359.688 1283.31 370.156V492.5H1165.42ZM1490.27 492.5V129.219H1607.92V492.5H1490.27ZM1731.91 471.406L1626.67 250.156H1755.81L1774.09 312.031C1774.25 312.656 1774.48 313.438 1774.8 314.375C1783.23 343.75 1788.23 365.703 1789.8 380.234C1794.33 361.328 1797.92 346.328 1800.58 335.234C1803.39 323.984 1805.58 315.781 1807.14 310.625L1824.95 250.156H1945.89L1798 591.406H1672.84L1731.91 471.406ZM2258.08 237.734V304.766H2277.3C2289.02 304.766 2298 301.953 2304.25 296.328C2310.66 290.547 2313.86 282.344 2313.86 271.719C2313.86 260.781 2310.66 252.422 2304.25 246.641C2298 240.703 2289.02 237.734 2277.3 237.734H2258.08ZM2137.14 492.5V149.375H2292.3C2337.3 149.375 2371.67 159.297 2395.42 179.141C2419.17 198.984 2431.05 227.578 2431.05 264.922C2431.05 289.297 2425.03 309.375 2413 325.156C2401.12 340.938 2385.03 350.156 2364.72 352.812L2456.36 492.5H2318.08L2258.08 379.297V492.5H2137.14ZM2738.31 390.547L2571.2 390.781V394.531C2571.2 406.875 2573.39 416.094 2577.77 422.188C2582.3 428.125 2589.09 431.094 2598.16 431.094C2603.62 431.094 2608.39 429.531 2612.45 426.406C2616.52 423.125 2619.72 418.438 2622.06 412.344L2731.05 419.609C2721.52 445.859 2705.11 466.094 2681.83 480.312C2658.55 494.531 2630.03 501.641 2596.28 501.641C2577.53 501.641 2559.95 498.75 2543.55 492.969C2527.3 487.344 2512.69 479.062 2499.72 468.125C2485.19 455.469 2474.02 440.859 2466.2 424.297C2458.39 407.734 2454.48 390.312 2454.48 372.031C2454.48 353.594 2458.39 336.094 2466.2 319.531C2474.17 302.812 2485.34 288.281 2499.72 275.938C2512.69 264.844 2527.3 256.484 2543.55 250.859C2559.8 245.234 2577.38 242.422 2596.28 242.422C2622.22 242.422 2645.5 247.656 2666.12 258.125C2686.75 268.438 2703.94 283.516 2717.69 303.359C2724.72 313.516 2729.95 324.766 2733.39 337.109C2736.98 349.297 2738.78 362.656 2738.78 377.188C2738.78 380.938 2738.7 383.75 2738.55 385.625C2738.55 387.5 2738.47 389.141 2738.31 390.547ZM2572.14 337.812L2625.34 338.047C2624.88 328.516 2622.45 321.484 2618.08 316.953C2613.86 312.422 2607.53 310.156 2599.09 310.156C2591.59 310.156 2585.5 312.578 2580.81 317.422C2576.28 322.109 2573.39 328.906 2572.14 337.812ZM2958.86 353.75C2952.61 348.281 2946.2 344.219 2939.64 341.562C2933.08 338.75 2926.2 337.344 2919.02 337.344C2907.14 337.344 2897.69 340.547 2890.66 346.953C2883.62 353.203 2880.11 361.562 2880.11 372.031C2880.11 382.031 2883.55 390.234 2890.42 396.641C2897.3 402.891 2906.2 406.016 2917.14 406.016C2924.02 406.016 2930.89 404.531 2937.77 401.562C2944.8 398.438 2951.83 393.906 2958.86 387.969V484.297C2946.67 490.234 2934.88 494.609 2923.47 497.422C2912.22 500.234 2901.12 501.641 2890.19 501.641C2872.22 501.641 2855.58 498.594 2840.27 492.5C2824.95 486.562 2811.36 477.734 2799.48 466.016C2786.98 453.516 2777.45 439.375 2770.89 423.594C2764.33 407.656 2761.05 390.781 2761.05 372.969C2761.05 360.625 2762.61 348.672 2765.73 337.109C2769.02 325.391 2773.86 314.297 2780.27 303.828C2792.45 283.984 2807.92 268.828 2826.67 258.359C2845.58 247.734 2866.75 242.422 2890.19 242.422C2900.5 242.422 2911.28 243.516 2922.53 245.703C2933.94 247.891 2946.05 251.25 2958.86 255.781V353.75ZM3122.92 174.688C3122.92 192.031 3117.22 205.859 3105.81 216.172C3094.41 226.328 3079.02 231.406 3059.64 231.406C3040.11 231.406 3024.56 226.25 3013 215.938C3001.44 205.625 2995.66 191.875 2995.66 174.688C2995.66 157.5 3001.36 143.984 3012.77 134.141C3024.17 124.141 3039.8 119.141 3059.64 119.141C3079.33 119.141 3094.8 124.141 3106.05 134.141C3117.3 143.984 3122.92 157.5 3122.92 174.688ZM3000.58 492.5V250.156H3118.23V492.5H3000.58ZM3314.17 406.953C3323.08 406.953 3330.34 403.75 3335.97 397.344C3341.59 390.781 3344.41 382.188 3344.41 371.562C3344.41 360.938 3341.59 352.344 3335.97 345.781C3330.34 339.219 3323.08 335.938 3314.17 335.938C3305.11 335.938 3297.77 339.219 3292.14 345.781C3286.67 352.344 3283.94 360.938 3283.94 371.562C3283.94 382.188 3286.67 390.781 3292.14 397.344C3297.77 403.75 3305.11 406.953 3314.17 406.953ZM3171.67 597.031V250.156H3283.94V282.266C3294.25 268.828 3305.58 258.828 3317.92 252.266C3330.42 245.703 3344.17 242.422 3359.17 242.422C3388.39 242.422 3411.91 254.375 3429.72 278.281C3447.69 302.031 3456.67 333.75 3456.67 373.438C3456.67 411.094 3447.45 441.797 3429.02 465.547C3410.73 489.297 3387.45 501.172 3359.17 501.172C3343.86 501.172 3329.95 497.734 3317.45 490.859C3304.95 483.828 3293.94 473.359 3284.41 459.453C3285.34 465.234 3286.05 471.641 3286.52 478.672C3286.98 485.547 3287.22 493.203 3287.22 501.641V597.031H3171.67ZM3770.03 390.547L3602.92 390.781V394.531C3602.92 406.875 3605.11 416.094 3609.48 422.188C3614.02 428.125 3620.81 431.094 3629.88 431.094C3635.34 431.094 3640.11 429.531 3644.17 426.406C3648.23 423.125 3651.44 418.438 3653.78 412.344L3762.77 419.609C3753.23 445.859 3736.83 466.094 3713.55 480.312C3690.27 494.531 3661.75 501.641 3628 501.641C3609.25 501.641 3591.67 498.75 3575.27 492.969C3559.02 487.344 3544.41 479.062 3531.44 468.125C3516.91 455.469 3505.73 440.859 3497.92 424.297C3490.11 407.734 3486.2 390.312 3486.2 372.031C3486.2 353.594 3490.11 336.094 3497.92 319.531C3505.89 302.812 3517.06 288.281 3531.44 275.938C3544.41 264.844 3559.02 256.484 3575.27 250.859C3591.52 245.234 3609.09 242.422 3628 242.422C3653.94 242.422 3677.22 247.656 3697.84 258.125C3718.47 268.438 3735.66 283.516 3749.41 303.359C3756.44 313.516 3761.67 324.766 3765.11 337.109C3768.7 349.297 3770.5 362.656 3770.5 377.188C3770.5 380.938 3770.42 383.75 3770.27 385.625C3770.27 387.5 3770.19 389.141 3770.03 390.547ZM3603.86 337.812L3657.06 338.047C3656.59 328.516 3654.17 321.484 3649.8 316.953C3645.58 312.422 3639.25 310.156 3630.81 310.156C3623.31 310.156 3617.22 312.578 3612.53 317.422C3608 322.109 3605.11 328.906 3603.86 337.812ZM3781.75 475.156L3812.92 400.391C3825.89 409.141 3837.77 415.781 3848.55 420.312C3859.33 424.844 3868.55 427.109 3876.2 427.109C3882.45 427.109 3887.22 425.938 3890.5 423.594C3893.78 421.094 3895.42 417.656 3895.42 413.281C3895.42 407.188 3888.47 402.734 3874.56 399.922C3869.88 398.984 3866.2 398.203 3863.55 397.578C3840.73 391.953 3824.09 383.672 3813.62 372.734C3803.31 361.641 3798.16 347.031 3798.16 328.906C3798.16 303.438 3808.7 282.656 3829.8 266.562C3851.05 250.469 3878.7 242.422 3912.77 242.422C3929.8 242.422 3946.05 244.062 3961.52 247.344C3977.14 250.469 3991.75 255.234 4005.34 261.641L3976.52 334.531C3965.58 327.188 3955.73 321.719 3946.98 318.125C3938.23 314.375 3930.66 312.5 3924.25 312.5C3918.94 312.5 3914.64 313.672 3911.36 316.016C3908.08 318.203 3906.44 321.172 3906.44 324.922C3906.44 331.016 3915.66 336.016 3934.09 339.922C3938.47 340.859 3941.91 341.641 3944.41 342.266C3968 347.891 3985.34 356.172 3996.44 367.109C4007.53 377.891 4013.08 392.031 4013.08 409.531C4013.08 436.719 4002.14 458.906 3980.27 476.094C3958.39 493.125 3929.48 501.641 3893.55 501.641C3874.02 501.641 3854.88 499.375 3836.12 494.844C3817.38 490.469 3799.25 483.906 3781.75 475.156ZM4031.59 443.516C4031.59 428.047 4038 414.844 4050.81 403.906C4063.78 392.812 4079.56 387.266 4098.16 387.266C4116.75 387.266 4132.53 392.812 4145.5 403.906C4158.47 414.844 4164.95 428.047 4164.95 443.516C4164.95 458.984 4158.47 472.266 4145.5 483.359C4132.69 494.297 4116.91 499.766 4098.16 499.766C4079.41 499.766 4063.62 494.297 4050.81 483.359C4038 472.266 4031.59 458.984 4031.59 443.516Z" fill="#1F2937"/>
<defs>
<linearGradient id="paint0_linear_8917_255" x1="556.977" y1="80.0232" x2="89.18" y2="547.82" gradientUnits="userSpaceOnUse">
<stop stop-color="#00B669"/>
<stop offset="1" stop-color="#089A61"/>
</linearGradient>
</defs>
</svg>
