<svg width="365" height="191" viewBox="0 0 365 191" fill="none" xmlns="http://www.w3.org/2000/svg">
<path d="M57.0532 101.388C60.5547 103.73 62.9351 107.648 63.1376 112.179C63.34 116.71 61.3177 120.825 58.0387 123.47C54.5378 121.128 52.1578 117.21 51.9554 112.68C51.753 108.148 53.7741 104.033 57.0532 101.388Z" fill="#017544"/>
<path d="M45.6748 90.0316C48.3252 93.3065 49.4371 97.7546 48.2871 102.142C47.1371 106.53 43.9865 109.86 40.0711 111.414C37.4211 108.139 36.3097 103.691 37.4597 99.3034C38.6098 94.9163 41.7596 91.5856 45.6748 90.0316Z" fill="#017544"/>
<path d="M37.8654 77.4275C39.3443 81.3725 38.9922 85.9447 36.5136 89.7438C34.035 93.5424 29.9926 95.7052 25.7865 95.941C24.3083 91.9964 24.6612 87.4252 27.1395 83.6267C29.618 79.8281 33.6595 77.6635 37.8654 77.4275Z" fill="#017544"/>
<path d="M38.9679 61.8426C39.0828 66.0541 37.2631 70.2624 33.6833 73.0484C30.1039 75.8341 25.5782 76.5645 21.5242 75.4193C21.4096 71.2083 23.2294 67.0007 26.8086 64.2149C30.3879 61.4293 34.914 60.6976 38.9679 61.8426Z" fill="#017544"/>
<path d="M42.5966 44.8145C41.6142 48.9111 38.764 52.5025 34.584 54.2636C30.4044 56.0244 25.8448 55.5547 22.2272 53.3967C23.2099 49.3008 26.0591 45.7103 30.2383 43.9493C34.418 42.1883 38.9789 42.6565 42.5966 44.8145Z" fill="#017544"/>
<path d="M52.4368 31.2902C50.7174 35.1362 47.255 38.1416 42.8223 39.1035C38.39 40.0652 33.994 38.7656 30.8353 35.9788C32.5547 32.1331 36.0164 29.1276 40.4488 28.1657C44.8811 27.2039 49.278 28.5033 52.4368 31.2902Z" fill="#017544"/>
<path d="M53.3854 5.80853C54.1734 9.94725 53.0511 14.3927 49.9638 17.7161C46.8768 21.039 42.5265 22.4849 38.3414 22.0038C37.5539 17.8655 38.6762 13.4207 41.7631 10.0977C44.85 6.77479 49.2005 5.3276 53.3854 5.80853Z" fill="#017544"/>
<path d="M14.7414 105.882C18.2623 103.568 22.7986 102.901 27.0512 104.479C31.3036 106.058 34.3056 109.523 35.4647 113.573C31.944 115.886 27.4084 116.552 23.1562 114.974C18.9038 113.396 15.9005 109.932 14.7414 105.882Z" fill="#017544"/>
<path d="M3.50658 82.6858C7.57833 81.6044 12.0928 82.4061 15.6281 85.2481C19.1632 88.09 20.9156 92.3264 20.7345 96.5352C16.663 97.6163 12.1493 96.8145 8.61433 93.9728C5.07923 91.1308 3.32543 86.8947 3.50658 82.6858Z" fill="#017544"/>
<path d="M4.77192 55.6361C8.97408 55.9381 12.982 58.165 15.4004 62.0027C17.8184 65.8399 18.0978 70.4157 16.5576 74.3366C12.3559 74.0342 8.34866 71.8074 5.93047 67.9703C3.51245 64.1332 3.23181 59.5569 4.77192 55.6361Z" fill="#017544"/>
<path d="M32.2082 125.698C34.8849 122.444 39.0204 120.464 43.5498 120.71C48.0785 120.957 51.9733 123.375 54.2811 126.899C51.6044 130.152 47.4695 132.133 42.9405 131.886C38.4117 131.64 34.516 129.222 32.2082 125.698Z" fill="#017544"/>
<path d="M24.294 10.8922C27.9508 12.9834 30.5994 16.7253 31.1184 21.231C31.6373 25.7373 29.9082 29.9838 26.822 32.8516C23.1655 30.7603 20.5176 27.0182 19.9986 22.5126C19.4797 18.0066 21.2081 13.76 24.294 10.8922Z" fill="#017544"/>
<path d="M11.1809 29.943C15.1602 31.3256 18.4523 34.517 19.7915 38.8505C21.1306 43.1838 20.2127 47.6754 17.7075 51.062C13.7283 49.6794 10.4364 46.4888 9.09719 42.1554C7.75795 37.8218 8.67542 33.3297 11.1809 29.943Z" fill="#017544"/>
<path d="M307.578 101.388C304.076 103.73 301.696 107.648 301.493 112.179C301.291 116.71 303.313 120.825 306.592 123.47C310.093 121.128 312.473 117.21 312.675 112.68C312.878 108.148 310.857 104.033 307.578 101.388Z" fill="#017544"/>
<path d="M318.956 90.0317C316.306 93.3066 315.194 97.7547 316.344 102.143C317.494 106.53 320.644 109.859 324.559 111.413C327.209 108.138 328.321 103.691 327.171 99.3035C326.021 94.9164 322.871 91.5857 318.956 90.0317Z" fill="#017544"/>
<path d="M326.765 77.43C325.287 81.3744 325.639 85.9452 328.117 89.7435C330.596 93.5423 334.638 95.705 338.844 95.9408C340.321 91.9967 339.969 87.4265 337.491 83.6286C335.013 79.8299 330.971 77.6659 326.765 77.43Z" fill="#017544"/>
<path d="M325.663 61.8426C325.548 66.0541 327.368 70.2624 330.947 73.0484C334.527 75.8341 339.053 76.5645 343.107 75.4193C343.221 71.2083 341.401 67.0007 337.822 64.2149C334.243 61.4293 329.717 60.6976 325.663 61.8426Z" fill="#017544"/>
<path d="M322.034 44.8145C323.017 48.9111 325.867 52.5025 330.047 54.2636C334.226 56.0244 338.786 55.5547 342.404 53.3967C341.421 49.3008 338.572 45.7103 334.392 43.9493C330.213 42.1883 325.652 42.6565 322.034 44.8145Z" fill="#017544"/>
<path d="M312.194 31.2902C313.913 35.1362 317.376 38.1416 321.808 39.1035C326.241 40.0652 330.637 38.7656 333.795 35.9788C332.076 32.1331 328.614 29.1277 324.182 28.1657C319.75 27.2039 315.353 28.5033 312.194 31.2902Z" fill="#017544"/>
<path d="M311.245 5.80853C310.457 9.94725 311.58 14.3927 314.667 17.7161C317.754 21.039 322.104 22.4849 326.289 22.0038C327.077 17.8655 325.954 13.4207 322.868 10.0977C319.781 6.7748 315.43 5.32761 311.245 5.80853Z" fill="#017544"/>
<path d="M349.889 105.882C346.368 103.568 341.832 102.901 337.579 104.479C333.327 106.058 330.325 109.523 329.166 113.573C332.687 115.886 337.222 116.552 341.475 114.974C345.727 113.396 348.73 109.932 349.889 105.882Z" fill="#017544"/>
<path d="M361.124 82.6858C357.052 81.6044 352.538 82.4061 349.003 85.2481C345.468 88.09 343.715 92.3264 343.896 96.5352C347.968 97.6163 352.481 96.8145 356.016 93.9728C359.552 91.1308 361.305 86.8947 361.124 82.6858Z" fill="#017544"/>
<path d="M359.859 55.6361C355.657 55.9381 351.649 58.165 349.23 62.0027C346.812 65.8399 346.533 70.4157 348.073 74.3366C352.275 74.0342 356.282 71.8074 358.7 67.9703C361.118 64.1332 361.399 59.5569 359.859 55.6361Z" fill="#017544"/>
<path d="M332.422 125.698C329.746 122.444 325.61 120.464 321.081 120.71C316.552 120.957 312.657 123.375 310.35 126.899C313.026 130.152 317.161 132.133 321.69 131.886C326.219 131.64 330.115 129.222 332.422 125.698Z" fill="#017544"/>
<path d="M340.337 10.8922C336.68 12.9834 334.031 16.7253 333.512 21.231C332.993 25.7373 334.723 29.9838 337.809 32.8516C341.465 30.7603 344.113 27.0182 344.632 22.5126C345.151 18.0066 343.423 13.76 340.337 10.8922Z" fill="#017544"/>
<path d="M353.45 29.943C349.47 31.3256 346.178 34.517 344.839 38.8505C343.5 43.1838 344.418 47.6754 346.923 51.062C350.902 49.6794 354.194 46.4888 355.534 42.1554C356.873 37.8218 355.955 33.3297 353.45 29.943Z" fill="#017544"/>
<path d="M118.891 30V9.98438H111.781V7.45312H128.812V9.98438H121.703V30H118.891ZM134.835 30.3125C133.335 30.3125 132.017 29.9688 130.882 29.2812C129.757 28.5938 128.877 27.6198 128.241 26.3594C127.616 25.0885 127.304 23.5938 127.304 21.875V21.8438C127.304 20.1146 127.616 18.625 128.241 17.375C128.877 16.1146 129.757 15.1458 130.882 14.4688C132.017 13.7812 133.33 13.4375 134.819 13.4375C136.319 13.4375 137.632 13.7812 138.757 14.4688C139.892 15.1458 140.773 16.1146 141.398 17.375C142.033 18.625 142.351 20.1146 142.351 21.8438V21.875C142.351 23.6042 142.033 25.099 141.398 26.3594C140.773 27.6198 139.898 28.5938 138.773 29.2812C137.648 29.9688 136.335 30.3125 134.835 30.3125ZM134.851 27.9062C135.809 27.9062 136.637 27.6719 137.335 27.2031C138.043 26.724 138.59 26.0365 138.976 25.1406C139.371 24.2344 139.569 23.1458 139.569 21.875V21.8438C139.569 20.5729 139.371 19.4896 138.976 18.5938C138.59 17.6979 138.038 17.0156 137.319 16.5469C136.611 16.0781 135.778 15.8438 134.819 15.8438C133.882 15.8438 133.054 16.0833 132.335 16.5625C131.627 17.0312 131.075 17.7135 130.679 18.6094C130.283 19.4948 130.085 20.5729 130.085 21.8438V21.875C130.085 23.1458 130.283 24.2344 130.679 25.1406C131.075 26.0365 131.627 26.724 132.335 27.2031C133.054 27.6719 133.892 27.9062 134.851 27.9062ZM146.061 35.4688V13.75H148.779V16.5H148.842C149.186 15.8646 149.607 15.3229 150.107 14.875C150.618 14.4167 151.201 14.0625 151.857 13.8125C152.514 13.5625 153.227 13.4375 153.998 13.4375C155.384 13.4375 156.592 13.7865 157.623 14.4844C158.665 15.1719 159.472 16.151 160.045 17.4219C160.618 18.6823 160.904 20.1667 160.904 21.875V21.8906C160.904 23.599 160.613 25.0833 160.029 26.3438C159.456 27.6042 158.654 28.5833 157.623 29.2812C156.602 29.9688 155.41 30.3125 154.045 30.3125C153.285 30.3125 152.571 30.1927 151.904 29.9531C151.238 29.7031 150.644 29.3542 150.123 28.9062C149.613 28.4479 149.186 27.9062 148.842 27.2812H148.779V35.4688H146.061ZM153.467 27.9062C154.425 27.9062 155.253 27.6615 155.951 27.1719C156.649 26.6823 157.186 25.9896 157.561 25.0938C157.936 24.1875 158.123 23.1198 158.123 21.8906V21.875C158.123 20.625 157.936 19.5521 157.561 18.6562C157.186 17.75 156.649 17.0573 155.951 16.5781C155.253 16.0885 154.425 15.8438 153.467 15.8438C152.55 15.8438 151.738 16.0938 151.029 16.5938C150.321 17.0938 149.764 17.7969 149.357 18.7031C148.962 19.599 148.764 20.6562 148.764 21.875V21.8906C148.764 23.099 148.967 24.1562 149.373 25.0625C149.779 25.9583 150.331 26.6562 151.029 27.1562C151.738 27.6562 152.55 27.9062 153.467 27.9062ZM172.559 30V7.45312H181.012C182.46 7.45312 183.72 7.73438 184.793 8.29688C185.876 8.84896 186.715 9.63021 187.309 10.6406C187.903 11.6406 188.199 12.8177 188.199 14.1719V14.2031C188.199 15.7656 187.793 17.1198 186.981 18.2656C186.179 19.401 185.074 20.1927 183.668 20.6406L188.887 30H185.59L180.762 21.0781C180.731 21.0781 180.699 21.0781 180.668 21.0781C180.647 21.0781 180.621 21.0781 180.59 21.0781H175.371V30H172.559ZM175.371 18.5938H180.762C182.21 18.5938 183.324 18.2188 184.106 17.4688C184.897 16.7188 185.293 15.651 185.293 14.2656V14.2344C185.293 12.8906 184.876 11.8438 184.043 11.0938C183.22 10.3333 182.085 9.95312 180.637 9.95312H175.371V18.5938ZM196.722 30.3125C195.649 30.3125 194.706 30.1094 193.894 29.7031C193.081 29.2969 192.446 28.724 191.988 27.9844C191.54 27.2448 191.316 26.3854 191.316 25.4062V25.375C191.316 24.4479 191.545 23.6458 192.003 22.9688C192.472 22.2917 193.144 21.7552 194.019 21.3594C194.904 20.9635 195.967 20.7292 197.206 20.6562L203.222 20.3125V22.4219L197.519 22.7656C196.435 22.8281 195.592 23.0885 194.988 23.5469C194.394 24.0052 194.097 24.6146 194.097 25.375V25.4062C194.097 26.1875 194.389 26.8073 194.972 27.2656C195.566 27.724 196.352 27.9531 197.331 27.9531C198.185 27.9531 198.951 27.776 199.628 27.4219C200.316 27.0573 200.857 26.5625 201.253 25.9375C201.659 25.3125 201.863 24.6094 201.863 23.8281V19.0312C201.863 18.0417 201.55 17.2656 200.925 16.7031C200.31 16.1302 199.435 15.8438 198.3 15.8438C197.258 15.8438 196.415 16.0729 195.769 16.5312C195.133 16.9792 194.738 17.5677 194.581 18.2969L194.55 18.4375H191.925L191.941 18.2656C192.024 17.3698 192.326 16.5573 192.847 15.8281C193.378 15.099 194.107 14.5208 195.034 14.0938C195.961 13.6562 197.06 13.4375 198.331 13.4375C199.613 13.4375 200.717 13.6562 201.644 14.0938C202.581 14.5312 203.305 15.151 203.816 15.9531C204.326 16.7448 204.581 17.6823 204.581 18.7656V30H201.863V27.3594H201.8C201.488 27.9531 201.071 28.474 200.55 28.9219C200.029 29.3594 199.441 29.7031 198.784 29.9531C198.139 30.1927 197.451 30.3125 196.722 30.3125ZM214.276 30.3125C212.786 30.3125 211.671 29.9583 210.932 29.25C210.192 28.5417 209.823 27.4115 209.823 25.8594V16H207.448V13.75H209.823V9.35938H212.635V13.75H215.729V16H212.635V25.8438C212.635 26.7083 212.823 27.2969 213.198 27.6094C213.573 27.9115 214.125 28.0625 214.854 28.0625C215.02 28.0625 215.177 28.0573 215.323 28.0469C215.479 28.026 215.614 28.0104 215.729 28V30.2031C215.562 30.224 215.343 30.2448 215.073 30.2656C214.812 30.2969 214.546 30.3125 214.276 30.3125ZM225.829 30.3125C224.277 30.3125 222.939 29.9688 221.814 29.2812C220.699 28.5938 219.84 27.625 219.236 26.375C218.642 25.1146 218.345 23.6354 218.345 21.9375V21.9219C218.345 20.2448 218.647 18.7708 219.251 17.5C219.855 16.2188 220.704 15.224 221.798 14.5156C222.892 13.7969 224.178 13.4375 225.658 13.4375C227.137 13.4375 228.408 13.7812 229.47 14.4688C230.543 15.1458 231.366 16.099 231.939 17.3281C232.512 18.5573 232.798 19.9844 232.798 21.6094V22.6094H219.704V20.4844H231.454L230.079 22.4531V21.4062C230.079 20.1458 229.887 19.1042 229.501 18.2812C229.126 17.4583 228.605 16.849 227.939 16.4531C227.272 16.0469 226.506 15.8438 225.642 15.8438C224.777 15.8438 224.001 16.0573 223.314 16.4844C222.626 16.901 222.085 17.526 221.689 18.3594C221.293 19.1823 221.095 20.1979 221.095 21.4062V22.4531C221.095 23.599 221.288 24.5781 221.673 25.3906C222.069 26.2031 222.626 26.8281 223.345 27.2656C224.064 27.6927 224.913 27.9062 225.892 27.9062C226.579 27.9062 227.194 27.8021 227.736 27.5938C228.277 27.3854 228.73 27.099 229.095 26.7344C229.46 26.3698 229.72 25.9531 229.876 25.4844L229.923 25.3438H232.595L232.564 25.5C232.428 26.1667 232.168 26.7917 231.783 27.375C231.408 27.9583 230.923 28.474 230.329 28.9219C229.736 29.3594 229.059 29.7031 228.298 29.9531C227.538 30.1927 226.715 30.3125 225.829 30.3125ZM242.618 30.3125C241.232 30.3125 240.019 29.9688 238.977 29.2812C237.946 28.5833 237.144 27.6042 236.571 26.3438C235.998 25.0729 235.711 23.5833 235.711 21.875V21.8594C235.711 20.151 235.998 18.6667 236.571 17.4062C237.154 16.1458 237.961 15.1719 238.993 14.4844C240.024 13.7865 241.216 13.4375 242.571 13.4375C243.341 13.4375 244.055 13.5625 244.711 13.8125C245.378 14.0521 245.972 14.401 246.493 14.8594C247.013 15.3073 247.44 15.8438 247.774 16.4688H247.836V7.45312H250.555V30H247.836V27.25H247.774C247.44 27.8854 247.019 28.4323 246.508 28.8906C245.998 29.3385 245.414 29.6875 244.758 29.9375C244.112 30.1875 243.399 30.3125 242.618 30.3125ZM243.149 27.9062C244.065 27.9062 244.878 27.6562 245.586 27.1562C246.295 26.6562 246.847 25.9531 247.243 25.0469C247.649 24.1406 247.852 23.0833 247.852 21.875V21.8594C247.852 20.651 247.649 19.599 247.243 18.7031C246.836 17.7969 246.279 17.0938 245.571 16.5938C244.873 16.0938 244.065 15.8438 243.149 15.8438C242.19 15.8438 241.362 16.0885 240.664 16.5781C239.966 17.0677 239.43 17.7604 239.055 18.6562C238.68 19.5521 238.493 20.6198 238.493 21.8594V21.875C238.493 23.1146 238.68 24.1875 239.055 25.0938C239.43 26 239.966 26.6979 240.664 27.1875C241.362 27.6667 242.19 27.9062 243.149 27.9062Z" fill="black"/>
<path d="M83.8594 76L88.6562 53.4531H98.7969C100.38 53.4531 101.724 53.75 102.828 54.3438C103.943 54.9271 104.792 55.724 105.375 56.7344C105.958 57.7448 106.25 58.8958 106.25 60.1875C106.25 61.25 106.047 62.2812 105.641 63.2812C105.234 64.2708 104.635 65.1615 103.844 65.9531C103.062 66.7448 102.099 67.3646 100.953 67.8125L103.453 76H96.5469L94.4219 68.4375H94.5781H92.0938L90.4844 76H83.8594ZM94.25 58.3438L93.0469 63.9062H96C96.7396 63.9062 97.3802 63.7708 97.9219 63.5C98.4635 63.2292 98.8802 62.8542 99.1719 62.375C99.4635 61.8958 99.6094 61.349 99.6094 60.7344C99.6094 59.9323 99.3646 59.3333 98.875 58.9375C98.3958 58.5417 97.6979 58.3438 96.7812 58.3438H94.25ZM123.616 70.75L122.507 76H106.601L111.397 53.4531H127.288L126.163 58.7031H116.897L116.132 62.3594H124.819L123.804 67.1094H115.116L114.335 70.75H123.616ZM144.014 62.5312C144.024 62.4792 144.029 62.4219 144.029 62.3594C144.029 62.2865 144.029 62.1354 144.029 61.9062C144.029 61.2396 143.868 60.6458 143.545 60.125C143.232 59.5938 142.805 59.1719 142.264 58.8594C141.722 58.5469 141.113 58.3906 140.436 58.3906C139.613 58.3906 138.852 58.5885 138.154 58.9844C137.467 59.3802 136.868 59.9427 136.357 60.6719C135.857 61.401 135.467 62.2656 135.186 63.2656C134.915 64.2552 134.779 65.3438 134.779 66.5312C134.779 67.4479 134.925 68.2448 135.217 68.9219C135.509 69.5885 135.925 70.1042 136.467 70.4688C137.009 70.8229 137.654 71 138.404 71C139.134 71 139.805 70.8542 140.42 70.5625C141.035 70.2708 141.566 69.8542 142.014 69.3125C142.462 68.7604 142.795 68.1146 143.014 67.375H149.436C149.175 69.1667 148.519 70.7396 147.467 72.0938C146.425 73.4479 145.081 74.5052 143.436 75.2656C141.8 76.0156 139.967 76.3906 137.936 76.3906C135.925 76.3906 134.17 76 132.67 75.2188C131.17 74.4375 130.009 73.3385 129.186 71.9219C128.363 70.5052 127.951 68.8438 127.951 66.9375C127.951 64.8229 128.259 62.9167 128.873 61.2188C129.488 59.5104 130.368 58.0521 131.514 56.8438C132.67 55.625 134.055 54.6927 135.67 54.0469C137.295 53.3906 139.113 53.0625 141.123 53.0625C142.946 53.0625 144.561 53.4271 145.967 54.1562C147.384 54.8854 148.493 55.8854 149.295 57.1562C150.107 58.4271 150.514 59.8854 150.514 61.5312C150.514 61.7292 150.503 61.9167 150.482 62.0938C150.472 62.2604 150.456 62.4062 150.436 62.5312H144.014ZM157.927 76H151.302L156.099 53.4531H162.724L157.927 76ZM167.059 53.4531H175.606C177.387 53.4531 178.892 53.7448 180.121 54.3281C181.361 54.9115 182.304 55.7292 182.949 56.7812C183.595 57.8333 183.918 59.0625 183.918 60.4688C183.918 62.3854 183.491 64.0469 182.637 65.4531C181.793 66.849 180.585 67.9323 179.012 68.7031C177.439 69.4635 175.574 69.8438 173.418 69.8438H170.215L168.902 76H162.293L167.059 53.4531ZM172.621 58.4531L171.231 64.9375H173.465C174.236 64.9375 174.908 64.7708 175.481 64.4375C176.054 64.0938 176.496 63.6302 176.809 63.0469C177.121 62.4531 177.277 61.7917 177.277 61.0625C177.277 60.1667 177.027 59.5104 176.527 59.0938C176.027 58.6667 175.304 58.4531 174.356 58.4531H172.621ZM201.456 70.75L200.347 76H184.441L189.238 53.4531H205.128L204.003 58.7031H194.738L193.972 62.3594H202.659L201.644 67.1094H192.956L192.175 70.75H201.456ZM225.486 58.9844L221.626 66.8438H225.97L225.626 58.9844H225.486ZM226.376 76L226.173 71.5156H219.329L217.126 76H210.142L222.548 53.4531H230.861L233.173 76H226.376ZM240.774 53.4531H249.321C251.102 53.4531 252.607 53.7448 253.836 54.3281C255.076 54.9115 256.019 55.7292 256.664 56.7812C257.31 57.8333 257.633 59.0625 257.633 60.4688C257.633 62.3854 257.206 64.0469 256.352 65.4531C255.508 66.849 254.3 67.9323 252.727 68.7031C251.154 69.4635 249.289 69.8438 247.133 69.8438H243.93L242.617 76H236.008L240.774 53.4531ZM246.336 58.4531L244.946 64.9375H247.18C247.951 64.9375 248.623 64.7708 249.196 64.4375C249.769 64.0938 250.211 63.6302 250.524 63.0469C250.836 62.4531 250.992 61.7917 250.992 61.0625C250.992 60.1667 250.742 59.5104 250.242 59.0938C249.742 58.6667 249.019 58.4531 248.071 58.4531H246.336ZM262.952 53.4531H271.499C273.281 53.4531 274.786 53.7448 276.015 54.3281C277.255 54.9115 278.197 55.7292 278.843 56.7812C279.489 57.8333 279.812 59.0625 279.812 60.4688C279.812 62.3854 279.385 64.0469 278.531 65.4531C277.687 66.849 276.479 67.9323 274.906 68.7031C273.333 69.4635 271.468 69.8438 269.312 69.8438H266.109L264.796 76H258.187L262.952 53.4531ZM268.515 58.4531L267.124 64.9375H269.359C270.13 64.9375 270.801 64.7708 271.374 64.4375C271.947 64.0938 272.39 63.6302 272.702 63.0469C273.015 62.4531 273.171 61.7917 273.171 61.0625C273.171 60.1667 272.921 59.5104 272.421 59.0938C271.921 58.6667 271.197 58.4531 270.249 58.4531H268.515Z" fill="black"/>
<path d="M74.0034 128.252C74.4872 127.448 75.6527 127.448 76.1365 128.252L81.3539 136.921C81.5277 137.21 81.8112 137.416 82.1396 137.492L91.9971 139.775C92.9111 139.987 93.2713 141.095 92.6562 141.804L86.0233 149.445C85.8023 149.699 85.6941 150.033 85.7232 150.368L86.5981 160.449C86.6792 161.384 85.7363 162.069 84.8723 161.703L75.5556 157.756C75.2452 157.624 74.8948 157.624 74.5844 157.756L65.2676 161.703C64.4037 162.069 63.4608 161.384 63.5419 160.449L64.4167 150.368C64.4459 150.033 64.3376 149.699 64.1166 149.445L57.4837 141.804C56.8686 141.095 57.2288 139.987 58.1429 139.775L68.0003 137.492C68.3287 137.416 68.6122 137.21 68.786 136.921L74.0034 128.252Z" fill="#F2C94C"/>
<path d="M128.161 128.252C128.645 127.448 129.81 127.448 130.294 128.252L135.511 136.921C135.685 137.21 135.969 137.416 136.297 137.492L146.155 139.775C147.069 139.987 147.429 141.095 146.814 141.804L140.181 149.445C139.96 149.699 139.852 150.033 139.881 150.368L140.756 160.449C140.837 161.384 139.894 162.069 139.03 161.703L129.713 157.756C129.403 157.624 129.052 157.624 128.742 157.756L119.425 161.703C118.561 162.069 117.618 161.384 117.699 160.449L118.574 150.368C118.603 150.033 118.495 149.699 118.274 149.445L111.641 141.804C111.026 141.095 111.386 139.987 112.3 139.775L122.158 137.492C122.486 137.416 122.77 137.21 122.943 136.921L128.161 128.252Z" fill="#F2C94C"/>
<path d="M182.318 128.252C182.802 127.448 183.968 127.448 184.452 128.252L189.669 136.921C189.843 137.21 190.126 137.416 190.455 137.492L200.312 139.775C201.226 139.987 201.586 141.095 200.971 141.804L194.338 149.445C194.117 149.699 194.009 150.033 194.038 150.368L194.913 160.449C194.994 161.384 194.051 162.069 193.187 161.703L183.871 157.756C183.56 157.624 183.21 157.624 182.899 157.756L173.583 161.703C172.719 162.069 171.776 161.384 171.857 160.449L172.732 150.368C172.761 150.033 172.653 149.699 172.432 149.445L165.799 141.804C165.184 141.095 165.544 139.987 166.458 139.775L176.315 137.492C176.644 137.416 176.927 137.21 177.101 136.921L182.318 128.252Z" fill="#F2C94C"/>
<path d="M197.849 124.508L198.246 128.461L201.361 130.926L197.724 132.525L196.342 136.25L193.698 133.285L189.728 133.122L191.731 129.69L190.659 125.864L194.542 126.709L197.849 124.508Z" fill="#F2C94C"/>
<path d="M206.514 149.056L204.897 152.685L206.379 156.372L202.427 155.955L199.379 158.503L198.555 154.616L195.189 152.505L198.631 150.52L199.599 146.666L202.55 149.326L206.514 149.056Z" fill="#F2C94C"/>
<path d="M179.373 161.555L183.133 162.837L186.67 161.027L186.613 165L189.428 167.804L185.632 168.978L183.834 172.521L181.545 169.274L177.62 168.659L180.001 165.478L179.373 161.555Z" fill="#F2C94C"/>
<path d="M169.325 148.441L168.178 152.245L170.113 155.715L166.141 155.8L163.438 158.713L162.13 154.961L158.525 153.291L161.689 150.887L162.163 146.943L165.426 149.209L169.325 148.441Z" fill="#F2C94C"/>
<path d="M165.649 126.851L169.622 126.906L172.425 124.09L173.6 127.886L177.144 129.682L173.898 131.972L173.285 135.898L170.104 133.518L166.181 134.149L167.461 130.387L165.649 126.851Z" fill="#F2C94C"/>
<path d="M236.476 128.252C236.96 127.448 238.125 127.448 238.609 128.252L243.826 136.921C244 137.21 244.284 137.416 244.612 137.492L254.47 139.775C255.384 139.987 255.744 141.095 255.129 141.804L248.496 149.445C248.275 149.699 248.167 150.033 248.196 150.368L249.071 160.449C249.152 161.384 248.209 162.069 247.345 161.703L238.028 157.756C237.718 157.624 237.367 157.624 237.057 157.756L227.74 161.703C226.876 162.069 225.933 161.384 226.014 160.449L226.889 150.368C226.918 150.033 226.81 149.699 226.589 149.445L219.956 141.804C219.341 141.095 219.701 139.987 220.615 139.775L230.473 137.492C230.801 137.416 231.085 137.21 231.258 136.921L236.476 128.252Z" fill="#F2C94C"/>
<path d="M290.633 128.252C291.117 127.448 292.283 127.448 292.767 128.252L297.984 136.921C298.158 137.21 298.441 137.416 298.77 137.492L308.627 139.775C309.541 139.987 309.901 141.095 309.286 141.804L302.653 149.445C302.432 149.699 302.324 150.033 302.353 150.368L303.228 160.449C303.309 161.384 302.366 162.069 301.502 161.703L292.186 157.756C291.875 157.624 291.525 157.624 291.214 157.756L281.898 161.703C281.034 162.069 280.091 161.384 280.172 160.449L281.047 150.368C281.076 150.033 280.968 149.699 280.747 149.445L274.114 141.804C273.499 141.095 273.859 139.987 274.773 139.775L284.63 137.492C284.959 137.416 285.242 137.21 285.416 136.921L290.633 128.252Z" fill="#F2C94C"/>
<path d="M291.7 140.172L293.749 143.576L297.619 144.473L295.015 147.473L295.358 151.432L291.7 149.882L288.042 151.432L288.385 147.473L285.781 144.473L289.651 143.576L291.7 140.172Z" fill="#F2C94C"/>
<path d="M291.7 140.172L293.749 143.576L297.619 144.473L295.015 147.473L295.358 151.432L291.7 149.882L288.042 151.432L288.385 147.473L285.781 144.473L289.651 143.576L291.7 140.172Z" fill="#F2C94C"/>
<path d="M291.7 140.172L293.749 143.576L297.619 144.473L295.015 147.473L295.358 151.432L291.7 149.882L288.042 151.432L288.385 147.473L285.781 144.473L289.651 143.576L291.7 140.172Z" fill="#F2C94C"/>
<path d="M291.7 140.172L293.749 143.576L297.619 144.473L295.015 147.473L295.358 151.432L291.7 149.882L288.042 151.432L288.385 147.473L285.781 144.473L289.651 143.576L291.7 140.172Z" fill="#F2C94C"/>
<path d="M291.7 140.172L293.749 143.576L297.619 144.473L295.015 147.473L295.358 151.432L291.7 149.882L288.042 151.432L288.385 147.473L285.781 144.473L289.651 143.576L291.7 140.172Z" fill="#F2C94C"/>
<path d="M168.219 113V109.156H157.078V104.484C157.641 103.547 158.208 102.615 158.781 101.688C159.365 100.75 159.943 99.8125 160.516 98.875C161.089 97.9375 161.661 97 162.234 96.0625C162.807 95.125 163.38 94.1927 163.953 93.2656C164.526 92.3281 165.094 91.3906 165.656 90.4531H173.656V104.688H176.516V109.156H173.656V113H168.219ZM161.875 104.891H168.375V94.4062H168.25C167.823 95.0938 167.396 95.7812 166.969 96.4688C166.552 97.1562 166.13 97.8438 165.703 98.5312C165.286 99.2188 164.859 99.9115 164.422 100.609C163.995 101.297 163.568 101.984 163.141 102.672C162.724 103.359 162.302 104.047 161.875 104.734V104.891ZM182.507 113.297C181.684 113.297 180.986 113.016 180.413 112.453C179.851 111.88 179.569 111.182 179.569 110.359C179.569 109.536 179.851 108.844 180.413 108.281C180.986 107.708 181.684 107.422 182.507 107.422C183.319 107.422 184.007 107.708 184.569 108.281C185.142 108.844 185.429 109.536 185.429 110.359C185.429 111.182 185.142 111.88 184.569 112.453C184.007 113.016 183.319 113.297 182.507 113.297ZM197.545 90.0469C199.076 90.0469 200.446 90.3125 201.654 90.8438C202.873 91.3646 203.91 92.125 204.764 93.125C205.628 94.125 206.285 95.3438 206.733 96.7812C207.18 98.2083 207.404 99.8281 207.404 101.641V101.672C207.404 104.099 207.003 106.188 206.201 107.938C205.41 109.688 204.279 111.036 202.811 111.984C201.352 112.932 199.608 113.406 197.576 113.406C196.024 113.406 194.623 113.13 193.373 112.578C192.134 112.026 191.113 111.276 190.311 110.328C189.519 109.38 189.014 108.307 188.795 107.109L188.764 106.984H194.373L194.436 107.094C194.602 107.458 194.826 107.781 195.108 108.062C195.399 108.344 195.753 108.568 196.17 108.734C196.587 108.901 197.061 108.984 197.592 108.984C198.529 108.984 199.305 108.714 199.92 108.172C200.535 107.63 201.003 106.891 201.326 105.953C201.66 105.016 201.858 103.953 201.92 102.766C201.93 102.578 201.936 102.396 201.936 102.219C201.946 102.031 201.951 101.844 201.951 101.656L201.217 97.8906C201.217 97.2344 201.055 96.651 200.733 96.1406C200.42 95.6302 199.988 95.224 199.436 94.9219C198.894 94.6198 198.29 94.4688 197.623 94.4688C196.956 94.4688 196.347 94.6198 195.795 94.9219C195.253 95.2135 194.821 95.6146 194.498 96.125C194.175 96.6354 194.014 97.2083 194.014 97.8438V97.875C194.014 98.5521 194.17 99.151 194.483 99.6719C194.805 100.182 195.233 100.583 195.764 100.875C196.305 101.156 196.91 101.297 197.576 101.297C198.264 101.297 198.878 101.156 199.42 100.875C199.972 100.583 200.41 100.182 200.733 99.6719C201.055 99.1615 201.217 98.5729 201.217 97.9062V97.8906H202.17V101.703H201.842C201.54 102.411 201.108 103.042 200.545 103.594C199.983 104.135 199.295 104.562 198.483 104.875C197.68 105.177 196.769 105.328 195.748 105.328C194.29 105.328 193.014 105.016 191.92 104.391C190.826 103.766 189.977 102.911 189.373 101.828C188.779 100.734 188.483 99.4896 188.483 98.0938V98.0625C188.483 96.4896 188.873 95.1042 189.654 93.9062C190.436 92.6979 191.509 91.7552 192.873 91.0781C194.238 90.3906 195.795 90.0469 197.545 90.0469Z" fill="black"/>
<path d="M219.602 97.0391L216.523 111.875H214L217.078 97.0391H219.602ZM230.148 109.305C229.288 109.305 228.541 109.154 227.905 108.852C227.27 108.549 226.77 108.143 226.405 107.633C226.041 107.117 225.84 106.539 225.804 105.898L225.796 105.773H228.358L228.374 105.82C228.437 106.055 228.549 106.268 228.71 106.461C228.871 106.648 229.075 106.799 229.319 106.914C229.564 107.023 229.84 107.078 230.148 107.078C230.502 107.078 230.814 107.003 231.085 106.852C231.356 106.701 231.567 106.49 231.718 106.219C231.874 105.948 231.952 105.641 231.952 105.297V105.281C231.952 104.932 231.874 104.628 231.718 104.367C231.567 104.107 231.353 103.901 231.077 103.75C230.806 103.599 230.496 103.523 230.148 103.523C229.913 103.523 229.697 103.557 229.499 103.625C229.301 103.688 229.121 103.781 228.96 103.906C228.845 103.984 228.741 104.076 228.648 104.18C228.559 104.284 228.483 104.393 228.421 104.508H225.976L226.46 97.7266H233.921V99.9375H228.679L228.46 102.828H228.608C228.749 102.573 228.937 102.352 229.171 102.164C229.405 101.977 229.679 101.831 229.991 101.727C230.304 101.617 230.642 101.562 231.007 101.562C231.71 101.562 232.332 101.721 232.874 102.039C233.416 102.357 233.84 102.789 234.148 103.336C234.46 103.883 234.616 104.513 234.616 105.227V105.242C234.616 106.049 234.429 106.76 234.054 107.375C233.679 107.984 233.155 108.458 232.483 108.797C231.812 109.135 231.033 109.305 230.148 109.305Z" fill="#4B5563"/>
</svg>
