<svg width="238" height="270" viewBox="0 0 238 270" fill="none" xmlns="http://www.w3.org/2000/svg">
<path d="M217.51 133.355C217.51 183.247 180.538 224.494 132.508 231.187C128.017 231.81 123.422 232.136 118.758 232.136C113.375 232.136 108.088 231.707 102.94 230.876C55.9134 223.304 20 182.521 20 133.355C20 78.7979 64.217 34.5679 118.751 34.5679C173.286 34.5679 217.51 78.7979 217.51 133.355Z" fill="#1877F2"/>
<path d="M132.508 113.884V135.404H159.121L154.907 164.393H132.508V231.181C128.017 231.804 123.422 232.129 118.758 232.129C113.375 232.129 108.088 231.7 102.94 230.869V164.393H78.3955V135.404H102.94V109.074C102.94 92.7384 116.177 79.4902 132.515 79.4902V79.504C132.563 79.504 132.605 79.4902 132.653 79.4902H159.128V104.561H141.829C136.687 104.561 132.515 108.735 132.515 113.877L132.508 113.884Z" fill="white"/>
<g filter="url(#filter0_d_7043_4584)">
<circle cx="119" cy="133" r="103" stroke="white" stroke-width="8" shape-rendering="crispEdges"/>
</g>
<defs>
<filter id="filter0_d_7043_4584" x="-16" y="0" width="270" height="270" filterUnits="userSpaceOnUse" color-interpolation-filters="sRGB">
<feFlood flood-opacity="0" result="BackgroundImageFix"/>
<feColorMatrix in="SourceAlpha" type="matrix" values="0 0 0 0 0 0 0 0 0 0 0 0 0 0 0 0 0 0 127 0" result="hardAlpha"/>
<feMorphology radius="4" operator="dilate" in="SourceAlpha" result="effect1_dropShadow_7043_4584"/>
<feOffset dy="2"/>
<feGaussianBlur stdDeviation="12"/>
<feComposite in2="hardAlpha" operator="out"/>
<feColorMatrix type="matrix" values="0 0 0 0 0 0 0 0 0 0 0 0 0 0 0 0 0 0 0.25 0"/>
<feBlend mode="normal" in2="BackgroundImageFix" result="effect1_dropShadow_7043_4584"/>
<feBlend mode="normal" in="SourceGraphic" in2="effect1_dropShadow_7043_4584" result="shape"/>
</filter>
</defs>
</svg>
