<svg width="238" height="270" viewBox="0 0 238 270" fill="none" xmlns="http://www.w3.org/2000/svg">
<path d="M119.974 34H119.525C65.108 34 20.9946 78.1264 20.9946 132.559V133.009C20.9946 187.441 65.108 231.568 119.525 231.568H119.974C174.391 231.568 218.504 187.441 218.504 133.009V132.559C218.504 78.1264 174.391 34 119.974 34Z" fill="#FF0000"/>
<path fill-rule="evenodd" clip-rule="evenodd" d="M110.737 159.796C110.619 160.204 110.508 160.551 110.418 160.897C105.194 181.371 104.613 185.919 99.2429 195.429C96.6826 199.949 93.7971 204.234 90.6071 208.331C90.2473 208.795 89.9082 209.391 89.1885 209.245C88.3997 209.079 88.3374 208.366 88.2544 207.736C87.3963 201.514 86.9189 195.277 87.1265 188.992C87.3963 180.811 88.4066 178 98.9523 133.646C99.1045 132.967 98.9315 132.407 98.7101 131.798C96.1844 124.987 95.6862 118.072 97.8936 111.067C102.668 95.9359 119.815 94.78 122.811 107.26C124.659 114.978 119.774 125.083 116.023 140.021C112.916 152.341 127.42 161.104 139.813 152.106C151.245 143.814 155.68 123.934 154.836 109.842C153.175 81.7463 122.376 75.6759 102.841 84.7227C80.442 95.0845 75.3491 122.855 85.4658 135.549C86.7459 137.162 89.1609 138.152 88.7388 139.785C88.0883 142.326 87.514 144.887 86.8081 147.413C86.2822 149.296 83.286 149.981 81.3831 149.206C77.6534 147.697 74.5464 145.323 72.0276 142.194C63.4403 131.555 60.9838 110.513 72.339 92.6965C84.9191 72.9626 108.322 64.9749 129.69 67.3975C155.21 70.2977 171.339 87.7406 174.356 107.53C175.734 116.542 174.744 138.768 162.095 154.48C147.543 172.532 123.953 173.73 113.069 162.648C112.231 161.796 111.56 160.807 110.737 159.789V159.796Z" fill="white"/>
<g filter="url(#filter0_d_7117_3125)">
<circle cx="119" cy="133" r="103" stroke="white" stroke-width="8" shape-rendering="crispEdges"/>
</g>
<defs>
<filter id="filter0_d_7117_3125" x="-16" y="0" width="270" height="270" filterUnits="userSpaceOnUse" color-interpolation-filters="sRGB">
<feFlood flood-opacity="0" result="BackgroundImageFix"/>
<feColorMatrix in="SourceAlpha" type="matrix" values="0 0 0 0 0 0 0 0 0 0 0 0 0 0 0 0 0 0 127 0" result="hardAlpha"/>
<feMorphology radius="4" operator="dilate" in="SourceAlpha" result="effect1_dropShadow_7117_3125"/>
<feOffset dy="2"/>
<feGaussianBlur stdDeviation="12"/>
<feComposite in2="hardAlpha" operator="out"/>
<feColorMatrix type="matrix" values="0 0 0 0 0 0 0 0 0 0 0 0 0 0 0 0 0 0 0.25 0"/>
<feBlend mode="normal" in2="BackgroundImageFix" result="effect1_dropShadow_7117_3125"/>
<feBlend mode="normal" in="SourceGraphic" in2="effect1_dropShadow_7117_3125" result="shape"/>
</filter>
</defs>
</svg>
