<svg width="238" height="270" viewBox="0 0 238 270" fill="none" xmlns="http://www.w3.org/2000/svg">
<path d="M118.999 34.1357H118.549C64.1327 34.1357 20.0193 78.2621 20.0193 132.695V133.145C20.0193 187.577 64.1327 231.704 118.549 231.704H118.999C173.416 231.704 217.529 187.577 217.529 133.145V132.695C217.529 78.2621 173.416 34.1357 118.999 34.1357Z" fill="black"/>
<path d="M168.849 112.601V131.255C165.589 130.937 161.355 130.196 156.67 128.479C150.553 126.237 146 123.17 143.017 120.796V158.499L142.941 158.381C142.99 159.129 143.017 159.89 143.017 160.659C143.017 179.382 127.787 194.624 109.062 194.624C90.3375 194.624 75.1072 179.382 75.1072 160.659C75.1072 141.935 90.3375 126.687 109.062 126.687C110.896 126.687 112.695 126.832 114.453 127.116V145.5C112.764 144.898 110.951 144.573 109.062 144.573C100.198 144.573 92.9808 151.785 92.9808 160.659C92.9808 169.532 100.198 176.745 109.062 176.745C117.926 176.745 125.144 169.525 125.144 160.659C125.144 160.326 125.137 159.994 125.116 159.662V86.3951H143.751C143.82 87.9733 143.882 89.5653 143.952 91.1434C144.076 94.2513 145.183 97.2346 147.114 99.678C149.377 102.551 152.719 105.887 157.41 108.552C161.804 111.044 165.929 112.109 168.849 112.615V112.601Z" fill="#FF004F"/>
<path d="M162.441 97.4561V116.11C159.182 115.792 154.947 115.051 150.262 113.335C144.145 111.092 139.592 108.026 136.61 105.651V143.354L136.533 143.237C136.582 143.984 136.61 144.746 136.61 145.514C136.61 164.237 121.379 179.479 102.655 179.479C83.9298 179.479 68.6995 164.237 68.6995 145.514C68.6995 126.79 83.9298 111.542 102.655 111.542C104.488 111.542 106.287 111.687 108.045 111.971V130.355C106.357 129.753 104.544 129.428 102.655 129.428C93.7904 129.428 86.5731 136.64 86.5731 145.514C86.5731 154.388 93.7904 161.6 102.655 161.6C111.519 161.6 118.736 154.381 118.736 145.514C118.736 145.182 118.729 144.849 118.708 144.517V71.2364H137.343C137.412 72.8146 137.475 74.4066 137.544 75.9847C137.668 79.0926 138.775 82.0759 140.706 84.5193C142.969 87.3918 146.311 90.7281 151.003 93.393C155.397 95.8779 159.521 96.9508 162.441 97.4561Z" fill="#00F7EF"/>
<path d="M166.517 105.61V124.264C163.257 123.946 159.023 123.205 154.338 121.488C148.221 119.246 143.668 116.179 140.685 113.805V151.508L140.609 151.39C140.658 152.138 140.685 152.899 140.685 153.668C140.685 172.391 125.455 187.633 106.73 187.633C88.0055 187.633 72.7751 172.391 72.7751 153.668C72.7751 134.944 88.0055 119.696 106.73 119.696C108.564 119.696 110.363 119.841 112.121 120.125V138.509C110.432 137.907 108.619 137.582 106.73 137.582C97.8661 137.582 90.6488 144.794 90.6488 153.668C90.6488 162.541 97.8661 169.754 106.73 169.754C115.594 169.754 122.812 162.535 122.812 153.668C122.812 153.335 122.805 153.003 122.784 152.671V79.4041H141.419C141.488 80.9823 141.55 82.5743 141.62 84.1525C141.744 87.2603 142.851 90.2436 144.782 92.687C147.045 95.5595 150.387 98.8958 155.078 101.561C159.472 104.046 163.597 105.118 166.517 105.624V105.61Z" fill="white"/>
<g filter="url(#filter0_d_7117_3101)">
<circle cx="119" cy="133" r="103" stroke="white" stroke-width="8" shape-rendering="crispEdges"/>
</g>
<defs>
<filter id="filter0_d_7117_3101" x="-16" y="0" width="270" height="270" filterUnits="userSpaceOnUse" color-interpolation-filters="sRGB">
<feFlood flood-opacity="0" result="BackgroundImageFix"/>
<feColorMatrix in="SourceAlpha" type="matrix" values="0 0 0 0 0 0 0 0 0 0 0 0 0 0 0 0 0 0 127 0" result="hardAlpha"/>
<feMorphology radius="4" operator="dilate" in="SourceAlpha" result="effect1_dropShadow_7117_3101"/>
<feOffset dy="2"/>
<feGaussianBlur stdDeviation="12"/>
<feComposite in2="hardAlpha" operator="out"/>
<feColorMatrix type="matrix" values="0 0 0 0 0 0 0 0 0 0 0 0 0 0 0 0 0 0 0.25 0"/>
<feBlend mode="normal" in2="BackgroundImageFix" result="effect1_dropShadow_7117_3101"/>
<feBlend mode="normal" in="SourceGraphic" in2="effect1_dropShadow_7117_3101" result="shape"/>
</filter>
</defs>
</svg>
