<svg width="238" height="270" viewBox="0 0 238 270" fill="none" xmlns="http://www.w3.org/2000/svg">
<path d="M218.032 133.627C218.032 183.519 181.06 224.766 133.03 231.459C128.539 232.082 123.944 232.407 119.28 232.407C113.897 232.407 108.61 231.978 103.462 231.147C56.4424 223.575 20.5291 182.792 20.5291 133.627C20.5291 79.0694 64.7461 34.8394 119.287 34.8394C173.829 34.8394 218.046 79.0694 218.046 133.627H218.032Z" fill="#1C1C1B"/>
<path d="M60.5804 78.4049L106.126 139.316L60.2966 188.842H70.614L110.741 145.484L143.16 188.842H178.264L130.158 124.504L172.818 78.4049H162.501L125.55 118.337L95.691 78.4049H60.5872H60.5804ZM75.7483 86.005H91.8713L163.082 181.242H146.959L75.7483 86.005Z" fill="white"/>
<g filter="url(#filter0_d_7117_3113)">
<circle cx="119" cy="133" r="103" stroke="white" stroke-width="8" shape-rendering="crispEdges"/>
</g>
<defs>
<filter id="filter0_d_7117_3113" x="-16" y="0" width="270" height="270" filterUnits="userSpaceOnUse" color-interpolation-filters="sRGB">
<feFlood flood-opacity="0" result="BackgroundImageFix"/>
<feColorMatrix in="SourceAlpha" type="matrix" values="0 0 0 0 0 0 0 0 0 0 0 0 0 0 0 0 0 0 127 0" result="hardAlpha"/>
<feMorphology radius="4" operator="dilate" in="SourceAlpha" result="effect1_dropShadow_7117_3113"/>
<feOffset dy="2"/>
<feGaussianBlur stdDeviation="12"/>
<feComposite in2="hardAlpha" operator="out"/>
<feColorMatrix type="matrix" values="0 0 0 0 0 0 0 0 0 0 0 0 0 0 0 0 0 0 0.25 0"/>
<feBlend mode="normal" in2="BackgroundImageFix" result="effect1_dropShadow_7117_3113"/>
<feBlend mode="normal" in="SourceGraphic" in2="effect1_dropShadow_7117_3113" result="shape"/>
</filter>
</defs>
</svg>
